<?xml version="1.0" encoding="UTF-8" standalone="no"?>
<svg
   xmlns:dc="http://purl.org/dc/elements/1.1/"
   xmlns:cc="http://creativecommons.org/ns#"
   xmlns:rdf="http://www.w3.org/1999/02/22-rdf-syntax-ns#"
   xmlns:svg="http://www.w3.org/2000/svg"
   xmlns="http://www.w3.org/2000/svg"
   xmlns:sodipodi="http://sodipodi.sourceforge.net/DTD/sodipodi-0.dtd"
   xmlns:inkscape="http://www.inkscape.org/namespaces/inkscape"
   width="90mm"
   height="100mm"
   viewBox="0 0 318.89764 354.33071"
   id="svg4849"
   version="1.1"
   inkscape:version="1.0.1 (c497b03c, 2020-09-10)"
   sodipodi:docname="allBacks.svg">
    <path
       id="plusSign"
       style="opacity:1;fill:none;stroke:#343fe5;stroke-width:1.22159;stroke-opacity:1;font-variation-settings:normal;vector-effect:none;fill-opacity:1;stroke-linecap:butt;stroke-linejoin:miter;stroke-miterlimit:4;stroke-dasharray:none;stroke-dashoffset:0;stop-color:#000000;stop-opacity:1"
       d="m 237.27491,233.44711 v 28.60714 a 6,6 135 0 1 -6,6 h -28.60474 c -2.76142,0 -5,2.23858 -5,5 l 0,29.67961 c 0,2.76142 2.23858,5 5,5 h 28.60474 a 6,6 45 0 1 6,6 v 28.60473 c 0,2.76142 2.23858,5 5,5 h 29.6796 c 2.76142,0 5,-2.23858 5,-5 v -28.60473 a 6,6 135 0 1 6,-6 h 26.73214 c 2.76142,0 5,-2.23858 5,-5 v -29.67961 c 0,-2.76142 -2.23858,-5 -5,-5 h -26.73214 a 6,6 45 0 1 -6,-6 v -28.60714 c 0,-2.76142 -2.23858,-5 -5,-5 h -29.6796 c -2.76142,0 -5,2.23858 -5,5 z"
       sodipodi:nodetypes="ccccccccccccc"
       inkscape:label="#plusSign" />

</svg>