<?xml version="1.0" encoding="UTF-8" standalone="no"?>
<svg
   xmlns:dc="http://purl.org/dc/elements/1.1/"
   xmlns:cc="http://creativecommons.org/ns#"
   xmlns:rdf="http://www.w3.org/1999/02/22-rdf-syntax-ns#"
   xmlns:svg="http://www.w3.org/2000/svg"
   xmlns="http://www.w3.org/2000/svg"
   width="25.588987mm"
   height="25.588987mm"
   viewBox="0 0 90.669641 90.669641"
   id="svg4849"
   version="1.1">
  <defs
     id="defs4851" />
  <metadata
     id="metadata4854">
    <rdf:RDF>
      <cc:Work
         rdf:about="">
        <dc:format>image/svg+xml</dc:format>
        <dc:type
           rdf:resource="http://purl.org/dc/dcmitype/StillImage" />
        <dc:title></dc:title>
      </cc:Work>
    </rdf:RDF>
  </metadata>
  <g
     id="layer1"
     transform="translate(-20.290179,-716.31275)"
     style="display:none">
    <g
       id="g1000"
       transform="translate(4.6875001,-0.66964287)">
      <circle
         style="fill:none;fill-rule:evenodd;stroke:#7d7d7d;stroke-width:0.946685;stroke-opacity:1"
         id="path159"
         cx="65.556984"
         cy="765.59741"
         r="61.534534" />
      <circle
         style="fill:none;fill-rule:evenodd;stroke:#7d7d7d;stroke-width:0.946685;stroke-opacity:1"
         id="circle984"
         cx="189.8427"
         cy="765.59741"
         r="61.534534" />
    </g>
    <g
       id="g1006"
       transform="translate(63.616072,107.14286)">
      <circle
         style="fill:none;fill-rule:evenodd;stroke:#7d7d7d;stroke-width:0.946685;stroke-opacity:1"
         id="circle1002"
         cx="65.556984"
         cy="765.59741"
         r="61.534534" />
      <circle
         style="fill:none;fill-rule:evenodd;stroke:#7d7d7d;stroke-width:0.946685;stroke-opacity:1"
         id="circle1004"
         cx="189.8427"
         cy="765.59741"
         r="61.534534" />
    </g>
    <g
       id="g1012"
       transform="translate(2.0089286,214.28572)">
      <circle
         style="fill:none;fill-rule:evenodd;stroke:#7d7d7d;stroke-width:0.946685;stroke-opacity:1"
         id="circle1008"
         cx="65.556984"
         cy="765.59741"
         r="61.534534" />
      <circle
         style="fill:none;fill-rule:evenodd;stroke:#7d7d7d;stroke-width:0.946685;stroke-opacity:1"
         id="circle1010"
         cx="189.8427"
         cy="765.59741"
         r="61.534534" />
    </g>
  </g>
  <g
     id="layer2"
     style="opacity:1"
     transform="translate(-20.290179,-18.28125)">
    <path
       id="rect1014"
       style="fill:none;stroke:#000000;stroke-width:1.01226;stroke-opacity:1"
       d="m 29.834352,18.78738 h 71.581288 c 5.00708,0 9.03805,4.030967 9.03805,9.038043 v 71.581293 c 0,5.007074 -4.03097,9.038044 -9.03805,9.038044 H 29.834352 c -5.007076,0 -9.038043,-4.03097 -9.038043,-9.038044 V 27.825423 c 0,-5.007076 4.030967,-9.038043 9.038043,-9.038043 z" />
    <circle
       style="fill:none;stroke:#000000;stroke-width:0.9375;stroke-opacity:1"
       id="path1016"
       cx="185.15625"
       cy="66.964287"
       r="54.241074" />
    <path
       id="path1018"
       style="opacity:0.999;fill:none;stroke:#000000;stroke-width:1.00599;stroke-opacity:0.96"
       d="m 115.58932,203.93238 -30.502216,-5.52977 -21.847467,21.99211 a 4.9352935,4.9352935 18.543268 0 1 -8.391785,-2.8149 l -4.16659,-30.71814 -27.666963,-13.98224 a 4.9352945,4.9352945 90.543271 0 1 0.08393,-8.85091 l 27.927135,-13.45509 4.748331,-30.6336 a 4.9352953,4.9352953 162.54326 0 1 8.443656,-2.65527 l 21.426505,22.40242 30.601608,-4.95035 a 4.9352954,4.9352954 54.543295 0 1 5.13454,7.20987 l -14.68483,27.30054 14.16449,27.57412 a 4.9352953,4.9352953 126.54329 0 1 -5.27034,7.11121 z" />
    <path
       id="path1031"
       style="opacity:0.999;fill:none;stroke:#000000;stroke-width:0.9375;stroke-opacity:0.96"
       transform="matrix(0.99397442,-0.28364741,0.28364741,0.99397442,-79.036702,18.839014)"
       d="m 107.71029,249.52656 11.48496,42.86241 a 10.392304,10.392304 105 0 1 -2.68973,10.03819 l -31.377457,31.37746 a 10.392305,10.392305 165 0 1 -10.038196,2.68973 L 32.227465,325.0094 a 10.392304,10.392304 44.999997 0 1 -7.348469,-7.34846 L 13.394049,274.79853 a 10.392305,10.392305 105 0 1 2.689727,-10.03819 l 31.377456,-31.37746 a 10.392305,10.392305 165 0 1 10.038196,-2.68973 l 42.862392,11.48495 a 10.392305,10.392305 44.999995 0 1 7.34847,7.34846 z" />
    <path
       id="path1033"
       style="opacity:0.999;fill:none;stroke:#000000;stroke-width:0.9375;stroke-opacity:0.96"
       transform="matrix(0.7313671,0.71908927,-0.71908927,0.7313671,190.93974,-137.01565)"
       d="m 295.73135,141.51858 7.82221,49.38746 a 9.6346733,9.6346733 117 0 1 -5.14201,10.09175 l -44.55306,22.70093 a 9.6346745,9.6346745 8.9999966 0 1 -11.1868,-1.77182 l -35.35752,-35.35751 a 9.6346729,9.6346729 80.999995 0 1 -1.77182,-11.1868 l 22.70093,-44.55307 a 9.6346725,9.6346725 153 0 1 10.09175,-5.14201 l 49.38746,7.82221 a 9.634674,9.634674 45 0 1 8.00886,8.00886 z" />
    <path
       id="path1035"
       style="opacity:0.999;fill:none;stroke:#000000;stroke-width:0.9375;stroke-opacity:0.96"
       d="m 204.27868,216.78796 -22.1283,82.58396 a 5.1961516,5.1961516 165 0 1 -8.69333,2.32937 L 113.0014,241.24563 a 5.1961526,5.1961526 105 0 1 2.32937,-8.69333 l 82.58395,-22.1283 a 5.196153,5.196153 44.999999 0 1 6.36396,6.36396 z" />
    <rect
       style="opacity:0.999;fill:none;stroke:#000000;stroke-width:0.9375;stroke-opacity:0.96"
       id="rect1046"
       width="34.151783"
       height="89.0625"
       x="255.13396"
       y="20.758928"
       ry="6.6964288" />
    <circle
       style="opacity:0.999;fill:none;stroke:#000000;stroke-width:1.13619;stroke-opacity:0.96"
       id="path1048"
       cx="161.63582"
       cy="172.62509"
       r="29.216394" />
    <path
       id="rect1050"
       style="opacity:0.999;fill:none;stroke:#000000;stroke-width:0.9375;stroke-opacity:0.96"
       d="m 241.96302,240.33334 0,32.40845 H 209.5564 a 5,5 135 0 0 -5,5 v 20.30396 a 5,5 45 0 0 5,5 h 32.40662 v 32.40661 a 5,5 45 0 0 5,5 l 20.30395,0 a 5,5 135 0 0 5,-5 v -32.40661 h 32.40845 a 5,5 135 0 0 5,-5 v -20.30396 a 5,5 45 0 0 -5,-5 h -32.40845 v -32.40845 a 5,5 45 0 0 -5,-5 h -20.30395 a 5,5 135 0 0 -5,5 z" />
    <circle
       style="opacity:0.999;fill:none;stroke:#000000;stroke-width:0.9375;stroke-opacity:0.96"
       id="path1059"
       cx="143.30357"
       cy="318.08035"
       r="17.410715" />
    <rect
       style="display:inline;opacity:0.999;fill:none;stroke:#000000;stroke-width:0.849463;stroke-opacity:0.96"
       id="rect1061"
       width="318.04813"
       height="353.48126"
       x="0.42473149"
       y="0.42473149" />
  </g>
</svg>
